<svg width="16" height="14" viewBox="0 0 16 14" fill="none" xmlns="http://www.w3.org/2000/svg">
<path fill-rule="evenodd" clip-rule="evenodd" d="M7.39618 0.625319C8.87112 0.331436 10.4023 0.558104 11.7289 1.26669C13.0554 1.97529 14.0952 3.12195 14.671 4.51128C15.2469 5.90061 15.3231 7.44662 14.8868 8.88587C14.4504 10.3251 13.5285 11.5685 12.2781 12.4042C11.0277 13.2399 9.52625 13.6161 8.02955 13.4687C6.53285 13.3214 5.13355 12.6596 4.07012 11.5962C3.87486 11.4009 3.87486 11.0843 4.07012 10.8891C4.26539 10.6938 4.58197 10.6938 4.77723 10.8891C5.67706 11.7889 6.86108 12.3489 8.12752 12.4736C9.39395 12.5982 10.6644 12.2799 11.7225 11.5728C12.7805 10.8657 13.5606 9.81356 13.9298 8.59574C14.299 7.37791 14.2345 6.06975 13.7472 4.89416C13.26 3.71857 12.3802 2.74832 11.2577 2.14874C10.1353 1.54917 8.83961 1.35737 7.59159 1.60604C6.34356 1.85471 5.22038 2.52846 4.41346 3.51247C3.60653 4.49647 3.16579 5.72985 3.16634 7.00241V7.12619L3.64612 6.64641C3.84138 6.45114 4.15797 6.45114 4.35323 6.64641C4.54849 6.84167 4.54849 7.15825 4.35323 7.35351L3.01989 8.68685C2.92613 8.78061 2.79895 8.83329 2.66634 8.83329C2.53373 8.83329 2.40656 8.78061 2.31279 8.68685L0.979454 7.35351C0.784192 7.15825 0.784192 6.84167 0.979454 6.64641C1.17472 6.45114 1.4913 6.45114 1.68656 6.64641L2.16634 7.12619L2.16634 7.00284C2.16574 5.49899 2.68661 4.04123 3.6402 2.87837C4.59385 1.71545 5.92124 0.919202 7.39618 0.625319Z" fill="#CCCCCC"/>
</svg>
